<svg xmlns="http://www.w3.org/2000/svg" width="268.4190673828125" height="289.22802734375" viewBox="-31.00652313232422 -40.48408126831055 268.4190673828125 289.22802734375"><title>Neo4j Graph Visualization</title><desc>Created using Neo4j (http://www.neo4j.com/)</desc><g class="layer relationships"><g class="relationship" transform="translate(115.69304409580302 -11.484082463346454) rotate(391.2292231072818)"><path class="outline" fill="#A5ABB6" stroke="none" d="M 25 0.5 L 33.49293860052283 0.5 L 33.49293860052283 -0.5 L 25 -0.5 Z M 67.93825110052282 0.5 L 76.43118970104565 0.5 L 76.43118970104565 3.5 L 83.43118970104565 0 L 76.43118970104565 -3.5 L 76.43118970104565 -0.5 L 67.93825110052282 -0.5 Z"/><text text-anchor="middle" pointer-events="none" font-size="8px" fill="#000000" x="50.71559485052283" y="3" font-family="sans-serif">ORIGIN</text></g><g class="relationship" transform="translate(115.69304409580302 -11.484082463346454) rotate(509.5597568550792)"><path class="outline" fill="#A5ABB6" stroke="none" d="M 25 0.5 L 26.049007748330723 0.5 L 26.049007748330723 -0.5 L 25 -0.5 Z M 74.72088274833072 0.5 L 75.76989049666145 0.5 L 75.76989049666145 3.5 L 82.76989049666145 0 L 75.76989049666145 -3.5 L 75.76989049666145 -0.5 L 74.72088274833072 -0.5 Z"/><text text-anchor="middle" pointer-events="none" font-size="8px" fill="#000000" x="50.38494524833072" y="3" transform="rotate(180 50.38494524833072 0)" font-family="sans-serif">DESTINA…</text></g><g class="relationship" transform="translate(-2.006523310366991 147.9718326405231) rotate(283.29902490227994)"><path class="outline" fill="#A5ABB6" stroke="none" d="M 25 0.5 L 33.14977071338287 0.5 L 33.14977071338287 -0.5 L 25 -0.5 Z M 67.59508321338288 0.5 L 75.74485392676574 0.5 L 75.74485392676574 3.5 L 82.74485392676574 0 L 75.74485392676574 -3.5 L 75.74485392676574 -0.5 L 67.59508321338288 -0.5 Z"/><text text-anchor="middle" pointer-events="none" font-size="8px" fill="#000000" x="50.37242696338287" y="3" font-family="sans-serif">ORIGIN</text></g><g class="relationship" transform="translate(-2.006523310366991 147.9718326405231) rotate(401.46021863513334)"><path class="outline" fill="#A5ABB6" stroke="none" d="M 25 0.5 L 26.364431837521444 0.5 L 26.364431837521444 -0.5 L 25 -0.5 Z M 75.03630683752144 0.5 L 76.40073867504289 0.5 L 76.40073867504289 3.5 L 83.40073867504289 0 L 76.40073867504289 -3.5 L 76.40073867504289 -0.5 L 75.03630683752144 -0.5 Z"/><text text-anchor="middle" pointer-events="none" font-size="8px" fill="#000000" x="50.700369337521444" y="3" font-family="sans-serif">DESTINA…</text></g></g><g class="layer nodes"><g class="node" transform="translate(208.41254732958748,44.73350037391526)"><circle class="outline" cx="0" cy="0" r="25" fill="#D9C8AE" stroke="#c0a378" stroke-width="2px"/><text text-anchor="middle" pointer-events="none" font-family="sans-serif" dy="1.5625" font-size="25" fill="#2A2C34"/><text text-anchor="middle" pointer-events="none" y="5" font-size="10px" fill="#2A2C34" font-family="sans-serif"> ORD</text></g><g class="node" transform="translate(79.23068214903296,219.74394835715904)"><circle class="outline" cx="0" cy="0" r="25" fill="#D9C8AE" stroke="#c0a378" stroke-width="2px"/><text text-anchor="middle" pointer-events="none" font-family="sans-serif" dy="1.5625" font-size="25" fill="#2A2C34"/><text text-anchor="middle" pointer-events="none" y="5" font-size="10px" fill="#2A2C34" font-family="sans-serif"> PBI</text></g><g class="node" transform="translate(115.69304409580302,-11.484082463346454)"><circle class="outline" cx="0" cy="0" r="25" fill="#8DCC93" stroke="#5db665" stroke-width="2px"/><text text-anchor="middle" pointer-events="none" font-family="sans-serif" dy="1.5625" font-size="25" fill="#2A2C34"/><text text-anchor="middle" pointer-events="none" y="5" font-size="10px" fill="#2A2C34" font-family="sans-serif"> 11/29/20…</text></g><g class="node" transform="translate(22.77836752280657,43.116395327583746)"><circle class="outline" cx="0" cy="0" r="25" fill="#D9C8AE" stroke="#c0a378" stroke-width="2px"/><text text-anchor="middle" pointer-events="none" font-family="sans-serif" dy="1.5625" font-size="25" fill="#2A2C34"/><text text-anchor="middle" pointer-events="none" y="5" font-size="10px" fill="#2A2C34" font-family="sans-serif"> MIA</text></g><g class="node" transform="translate(-2.006523310366991,147.9718326405231)"><circle class="outline" cx="0" cy="0" r="25" fill="#8DCC93" stroke="#5db665" stroke-width="2px"/><text text-anchor="middle" pointer-events="none" font-family="sans-serif" dy="1.5625" font-size="25" fill="#2A2C34"/><text text-anchor="middle" pointer-events="none" y="5" font-size="10px" fill="#2A2C34" font-family="sans-serif"> 11/24/20…</text></g></g></svg>