<svg xmlns="http://www.w3.org/2000/svg" width="594.6861572265625" height="505.121337890625" viewBox="-473.91558837890625 -316.9366760253906 594.6861572265625 505.121337890625"><title>Neo4j Graph Visualization</title><desc>Created using Neo4j (http://www.neo4j.com/)</desc><g class="layer relationships"><g class="relationship" transform="translate(-246.690445459143 89.47818004897658) rotate(388.8501436135192)"><path class="outline" fill="#A5ABB6" stroke="none" d="M 25 0.5 L 45.9504079881702 0.5 L 45.9504079881702 -0.5 L 25 -0.5 Z M 91.5129079881702 0.5 L 112.4633159763404 0.5 L 112.4633159763404 3.5 L 119.4633159763404 0 L 112.4633159763404 -3.5 L 112.4633159763404 -0.5 L 91.5129079881702 -0.5 Z"/><text text-anchor="middle" pointer-events="none" font-size="8px" fill="#000000" x="68.7316579881702" y="3" font-family="sans-serif">ACTED_IN</text></g><g class="relationship" transform="translate(-246.690445459143 89.47818004897658) rotate(180.92324833665634)"><path class="outline" fill="#A5ABB6" stroke="none" d="M 25 0.5 L 72.84419525272756 0.5 L 72.84419525272756 -0.5 L 25 -0.5 Z M 118.40669525272756 0.5 L 166.25089050545512 0.5 L 166.25089050545512 3.5 L 173.25089050545512 0 L 166.25089050545512 -3.5 L 166.25089050545512 -0.5 L 118.40669525272756 -0.5 Z"/><text text-anchor="middle" pointer-events="none" font-size="8px" fill="#000000" x="95.62544525272756" y="3" transform="rotate(180 95.62544525272756 0)" font-family="sans-serif">ACTED_IN</text></g><g class="relationship" transform="translate(-246.690445459143 89.47818004897658) rotate(219.4725278908818)"><path class="outline" fill="#A5ABB6" stroke="none" d="M 25 0.5 L 66.0049352785458 0.5 L 66.0049352785458 -0.5 L 25 -0.5 Z M 111.5674352785458 0.5 L 152.5723705570916 0.5 L 152.5723705570916 3.5 L 159.5723705570916 0 L 152.5723705570916 -3.5 L 152.5723705570916 -0.5 L 111.5674352785458 -0.5 Z"/><text text-anchor="middle" pointer-events="none" font-size="8px" fill="#000000" x="88.7861852785458" y="3" transform="rotate(180 88.7861852785458 0)" font-family="sans-serif">ACTED_IN</text></g><g class="relationship" transform="translate(-246.690445459143 89.47818004897658) rotate(358.09745968587185)"><path class="outline" fill="#A5ABB6" stroke="none" d="M 25 0.5 L 143.0426103899301 0.5 L 143.0426103899301 -0.5 L 25 -0.5 Z M 188.6051103899301 0.5 L 306.6477207798602 0.5 L 306.6477207798602 3.5 L 313.6477207798602 0 L 306.6477207798602 -3.5 L 306.6477207798602 -0.5 L 188.6051103899301 -0.5 Z"/><text text-anchor="middle" pointer-events="none" font-size="8px" fill="#000000" x="165.8238603899301" y="3" font-family="sans-serif">ACTED_IN</text></g><g class="relationship" transform="translate(-227.4288405851501 3.236333359953747) rotate(190.88168975067015)"><path class="outline" fill="#A5ABB6" stroke="none" d="M 25 0.5 L 56.068706456502014 0.5 L 56.068706456502014 -0.5 L 25 -0.5 Z M 101.63120645650201 0.5 L 132.69991291300403 0.5 L 132.69991291300403 3.5 L 139.69991291300403 0 L 132.69991291300403 -3.5 L 132.69991291300403 -0.5 L 101.63120645650201 -0.5 Z"/><text text-anchor="middle" pointer-events="none" font-size="8px" fill="#000000" x="78.84995645650201" y="3" transform="rotate(180 78.84995645650201 0)" font-family="sans-serif">ACTED_IN</text></g><g class="relationship" transform="translate(-227.4288405851501 3.236333359953747) rotate(373.2223479208218)"><path class="outline" fill="#A5ABB6" stroke="none" d="M 25 0.5 L 137.66471388505295 0.5 L 137.66471388505295 -0.5 L 25 -0.5 Z M 183.22721388505295 0.5 L 295.8919277701059 0.5 L 295.8919277701059 3.5 L 302.8919277701059 0 L 295.8919277701059 -3.5 L 295.8919277701059 -0.5 L 183.22721388505295 -0.5 Z"/><text text-anchor="middle" pointer-events="none" font-size="8px" fill="#000000" x="160.44596388505295" y="3" font-family="sans-serif">ACTED_IN</text></g><g class="relationship" transform="translate(-214.13208667027357 -92.50232306184301) rotate(519.7291310635477)"><path class="outline" fill="#A5ABB6" stroke="none" d="M 25 0.5 L 67.01461666841034 0.5 L 67.01461666841034 -0.5 L 25 -0.5 Z M 112.57711666841034 0.5 L 154.59173333682068 0.5 L 154.59173333682068 3.5 L 161.59173333682068 0 L 154.59173333682068 -3.5 L 154.59173333682068 -0.5 L 112.57711666841034 -0.5 Z"/><text text-anchor="middle" pointer-events="none" font-size="8px" fill="#000000" x="89.79586666841034" y="3" transform="rotate(180 89.79586666841034 0)" font-family="sans-serif">ACTED_IN</text></g><g class="relationship" transform="translate(-214.13208667027357 -92.50232306184301) rotate(389.1677835068305)"><path class="outline" fill="#A5ABB6" stroke="none" d="M 25 0.5 L 148.8813660890194 0.5 L 148.8813660890194 -0.5 L 25 -0.5 Z M 194.4438660890194 0.5 L 318.3252321780388 0.5 L 318.3252321780388 3.5 L 325.3252321780388 0 L 318.3252321780388 -3.5 L 318.3252321780388 -0.5 L 194.4438660890194 -0.5 Z"/><text text-anchor="middle" pointer-events="none" font-size="8px" fill="#000000" x="171.6626160890194" y="3" font-family="sans-serif">ACTED_IN</text></g><g class="relationship" transform="translate(-214.91665557286905 -187.24203355028004) rotate(248.97056661122582)"><path class="outline" fill="#A5ABB6" stroke="none" d="M 25 0.5 L 27.658679290657282 0.5 L 27.658679290657282 -0.5 L 25 -0.5 Z M 73.22117929065729 0.5 L 75.87985858131456 0.5 L 75.87985858131456 3.5 L 82.87985858131456 0 L 75.87985858131456 -3.5 L 75.87985858131456 -0.5 L 73.22117929065729 -0.5 Z"/><text text-anchor="middle" pointer-events="none" font-size="8px" fill="#000000" x="50.43992929065728" y="3" transform="rotate(180 50.43992929065728 0)" font-family="sans-serif">ACTED_IN</text></g><g class="relationship" transform="translate(-214.91665557286905 -187.24203355028004) rotate(321.30653292145314)"><path class="outline" fill="#A5ABB6" stroke="none" d="M 25 0.5 L 33.62590305167714 0.5 L 33.62590305167714 -0.5 L 25 -0.5 Z M 79.18840305167714 0.5 L 87.81430610335428 0.5 L 87.81430610335428 3.5 L 94.81430610335428 0 L 87.81430610335428 -3.5 L 87.81430610335428 -0.5 L 79.18840305167714 -0.5 Z"/><text text-anchor="middle" pointer-events="none" font-size="8px" fill="#000000" x="56.40715305167714" y="3" font-family="sans-serif">ACTED_IN</text></g><g class="relationship" transform="translate(-214.91665557286905 -187.24203355028004) rotate(357.3694050217953)"><path class="outline" fill="#A5ABB6" stroke="none" d="M 25 0.5 L 47.969854093619176 0.5 L 47.969854093619176 -0.5 L 25 -0.5 Z M 93.53235409361918 0.5 L 116.50220818723835 0.5 L 116.50220818723835 3.5 L 123.50220818723835 0 L 116.50220818723835 -3.5 L 116.50220818723835 -0.5 L 93.53235409361918 -0.5 Z"/><text text-anchor="middle" pointer-events="none" font-size="8px" fill="#000000" x="70.75110409361918" y="3" font-family="sans-serif">ACTED_IN</text></g><g class="relationship" transform="translate(-214.91665557286905 -187.24203355028004) rotate(188.7837669809782)"><path class="outline" fill="#A5ABB6" stroke="none" d="M 25 0.5 L 48.33891230597794 0.5 L 48.33891230597794 -0.5 L 25 -0.5 Z M 93.90141230597794 0.5 L 117.24032461195588 0.5 L 117.24032461195588 3.5 L 124.24032461195588 0 L 117.24032461195588 -3.5 L 117.24032461195588 -0.5 L 93.90141230597794 -0.5 Z"/><text text-anchor="middle" pointer-events="none" font-size="8px" fill="#000000" x="71.12016230597794" y="3" transform="rotate(180 71.12016230597794 0)" font-family="sans-serif">ACTED_IN</text></g><g class="relationship" transform="translate(-214.91665557286905 -187.24203355028004) rotate(497.5510253450323)"><path class="outline" fill="#A5ABB6" stroke="none" d="M 25 0.5 L 91.79414943247959 0.5 L 91.79414943247959 -0.5 L 25 -0.5 Z M 137.35664943247957 0.5 L 204.15079886495917 0.5 L 204.15079886495917 3.5 L 211.15079886495917 0 L 204.15079886495917 -3.5 L 204.15079886495917 -0.5 L 137.35664943247957 -0.5 Z"/><text text-anchor="middle" pointer-events="none" font-size="8px" fill="#000000" x="114.57539943247959" y="3" transform="rotate(180 114.57539943247959 0)" font-family="sans-serif">ACTED_IN</text></g><g class="relationship" transform="translate(-214.91665557286905 -187.24203355028004) rotate(400.8804034660593)"><path class="outline" fill="#A5ABB6" stroke="none" d="M 25 0.5 L 176.53347837642215 0.5 L 176.53347837642215 -0.5 L 25 -0.5 Z M 222.09597837642215 0.5 L 373.6294567528443 0.5 L 373.6294567528443 3.5 L 380.6294567528443 0 L 373.6294567528443 -3.5 L 373.6294567528443 -0.5 L 222.09597837642215 -0.5 Z"/><text text-anchor="middle" pointer-events="none" font-size="8px" fill="#000000" x="199.31472837642215" y="3" font-family="sans-serif">ACTED_IN</text></g></g><g class="layer nodes"><g class="node" transform="translate(-246.690445459143,89.47818004897658)"><circle class="outline" cx="0" cy="0" r="25" fill="#57C7E3" stroke="#23b3d7" stroke-width="2px"/><text text-anchor="middle" pointer-events="none" font-family="sans-serif" dy="1.5625" font-size="25" fill="#2A2C34"/><text text-anchor="middle" pointer-events="none" font-family="sans-serif" dy="1.5625" font-size="25" fill="#2A2C34"/><text text-anchor="middle" pointer-events="none" x="0" y="0" font-size="10px" fill="#2A2C34" font-family="sans-serif"> Hugo</text><text text-anchor="middle" pointer-events="none" x="0" y="10" font-size="10px" fill="#2A2C34" font-family="sans-serif"> Weaving</text></g><g class="node" transform="translate(-120.15723329903093,159.18467819171812)"><circle class="outline" cx="0" cy="0" r="25" fill="#F79767" stroke="#f36924" stroke-width="2px"/><text text-anchor="middle" pointer-events="none" font-family="sans-serif" dy="1.5625" font-size="25" fill="#FFFFFF"/><text text-anchor="middle" pointer-events="none" font-family="sans-serif" dy="1.5625" font-size="25" fill="#FFFFFF"/><text text-anchor="middle" pointer-events="none" x="0" y="0" font-size="10px" fill="#FFFFFF" font-family="sans-serif"> Cloud</text><text text-anchor="middle" pointer-events="none" x="0" y="10" font-size="10px" fill="#FFFFFF" font-family="sans-serif"> Atlas</text></g><g class="node" transform="translate(-444.9155983936432,86.28375830162486)"><circle class="outline" cx="0" cy="0" r="25" fill="#F79767" stroke="#f36924" stroke-width="2px"/><text text-anchor="middle" pointer-events="none" font-family="sans-serif" dy="1.5625" font-size="25" fill="#FFFFFF"/><text text-anchor="middle" pointer-events="none" font-family="sans-serif" dy="1.5625" font-size="25" fill="#FFFFFF"/><text text-anchor="middle" pointer-events="none" x="0" y="0" font-size="10px" fill="#FFFFFF" font-family="sans-serif"> V for</text><text text-anchor="middle" pointer-events="none" x="0" y="10" font-size="10px" fill="#FFFFFF" font-family="sans-serif"> Vendetta</text></g><g class="node" transform="translate(-389.1672996096756,-27.85598379272897)"><circle class="outline" cx="0" cy="0" r="25" fill="#F79767" stroke="#f36924" stroke-width="2px"/><text text-anchor="middle" pointer-events="none" font-family="sans-serif" dy="1.5625" font-size="25" fill="#FFFFFF"/><text text-anchor="middle" pointer-events="none" font-family="sans-serif" dy="1.5625" font-size="25" fill="#FFFFFF"/><text text-anchor="middle" pointer-events="none" font-family="sans-serif" dy="1.5625" font-size="25" fill="#FFFFFF"/><text text-anchor="middle" pointer-events="none" x="0" y="-5" font-size="10px" fill="#FFFFFF" font-family="sans-serif"> The</text><text text-anchor="middle" pointer-events="none" x="0" y="5" font-size="10px" fill="#FFFFFF" font-family="sans-serif"> Matrix</text><text text-anchor="middle" pointer-events="none" x="0" y="15" font-size="10px" fill="#FFFFFF" font-family="sans-serif"> Revol…</text></g><g class="node" transform="translate(91.7705940590028,78.23524814976581)"><circle class="outline" cx="0" cy="0" r="25" fill="#F79767" stroke="#f36924" stroke-width="2px"/><text text-anchor="middle" pointer-events="none" font-family="sans-serif" dy="1.5625" font-size="25" fill="#FFFFFF"/><text text-anchor="middle" pointer-events="none" font-family="sans-serif" dy="1.5625" font-size="25" fill="#FFFFFF"/><text text-anchor="middle" pointer-events="none" font-family="sans-serif" dy="1.5625" font-size="25" fill="#FFFFFF"/><text text-anchor="middle" pointer-events="none" x="0" y="-5" font-size="10px" fill="#FFFFFF" font-family="sans-serif"> The</text><text text-anchor="middle" pointer-events="none" x="0" y="5" font-size="10px" fill="#FFFFFF" font-family="sans-serif"> Matrix</text><text text-anchor="middle" pointer-events="none" x="0" y="15" font-size="10px" fill="#FFFFFF" font-family="sans-serif"> Reloa…</text></g><g class="node" transform="translate(-227.4288405851501,3.236333359953747)"><circle class="outline" cx="0" cy="0" r="25" fill="#57C7E3" stroke="#23b3d7" stroke-width="2px"/><text text-anchor="middle" pointer-events="none" font-family="sans-serif" dy="1.5625" font-size="25" fill="#2A2C34"/><text text-anchor="middle" pointer-events="none" font-family="sans-serif" dy="1.5625" font-size="25" fill="#2A2C34"/><text text-anchor="middle" pointer-events="none" x="0" y="0" font-size="10px" fill="#2A2C34" font-family="sans-serif"> Laurence</text><text text-anchor="middle" pointer-events="none" x="0" y="10" font-size="10px" fill="#2A2C34" font-family="sans-serif"> Fishbur…</text></g><g class="node" transform="translate(-214.13208667027357,-92.50232306184301)"><circle class="outline" cx="0" cy="0" r="25" fill="#57C7E3" stroke="#23b3d7" stroke-width="2px"/><text text-anchor="middle" pointer-events="none" font-family="sans-serif" dy="1.5625" font-size="25" fill="#2A2C34"/><text text-anchor="middle" pointer-events="none" x="0" y="5" font-size="10px" fill="#2A2C34" font-family="sans-serif"> Carrie-A…</text></g><g class="node" transform="translate(-214.91665557286905,-187.24203355028004)"><circle class="outline" cx="0" cy="0" r="25" fill="#57C7E3" stroke="#23b3d7" stroke-width="2px"/><text text-anchor="middle" pointer-events="none" font-family="sans-serif" dy="1.5625" font-size="25" fill="#2A2C34"/><text text-anchor="middle" pointer-events="none" font-family="sans-serif" dy="1.5625" font-size="25" fill="#2A2C34"/><text text-anchor="middle" pointer-events="none" x="0" y="0" font-size="10px" fill="#2A2C34" font-family="sans-serif"> Keanu</text><text text-anchor="middle" pointer-events="none" x="0" y="10" font-size="10px" fill="#2A2C34" font-family="sans-serif"> Reeves</text></g><g class="node" transform="translate(-253.62907219879634,-287.93668428459193)"><circle class="outline" cx="0" cy="0" r="25" fill="#F79767" stroke="#f36924" stroke-width="2px"/><text text-anchor="middle" pointer-events="none" font-family="sans-serif" dy="1.5625" font-size="25" fill="#FFFFFF"/><text text-anchor="middle" pointer-events="none" x="0" y="5" font-size="10px" fill="#FFFFFF" font-family="sans-serif"> Somethi…</text></g><g class="node" transform="translate(-121.40138680744704,-262.1443863488348)"><circle class="outline" cx="0" cy="0" r="25" fill="#F79767" stroke="#f36924" stroke-width="2px"/><text text-anchor="middle" pointer-events="none" font-family="sans-serif" dy="1.5625" font-size="25" fill="#FFFFFF"/><text text-anchor="middle" pointer-events="none" font-family="sans-serif" dy="1.5625" font-size="25" fill="#FFFFFF"/><text text-anchor="middle" pointer-events="none" x="0" y="0" font-size="10px" fill="#FFFFFF" font-family="sans-serif"> The</text><text text-anchor="middle" pointer-events="none" x="0" y="10" font-size="10px" fill="#FFFFFF" font-family="sans-serif"> Replac…</text></g><g class="node" transform="translate(-66.57093837399403,-194.05775253196327)"><circle class="outline" cx="0" cy="0" r="25" fill="#F79767" stroke="#f36924" stroke-width="2px"/><text text-anchor="middle" pointer-events="none" font-family="sans-serif" dy="1.5625" font-size="25" fill="#FFFFFF"/><text text-anchor="middle" pointer-events="none" font-family="sans-serif" dy="1.5625" font-size="25" fill="#FFFFFF"/><text text-anchor="middle" pointer-events="none" x="0" y="0" font-size="10px" fill="#FFFFFF" font-family="sans-serif"> Johnny</text><text text-anchor="middle" pointer-events="none" x="0" y="10" font-size="10px" fill="#FFFFFF" font-family="sans-serif"> Mnemo…</text></g><g class="node" transform="translate(-362.40664274764237,-210.03190352505533)"><circle class="outline" cx="0" cy="0" r="25" fill="#F79767" stroke="#f36924" stroke-width="2px"/><text text-anchor="middle" pointer-events="none" font-family="sans-serif" dy="1.5625" font-size="25" fill="#FFFFFF"/><text text-anchor="middle" pointer-events="none" font-family="sans-serif" dy="1.5625" font-size="25" fill="#FFFFFF"/><text text-anchor="middle" pointer-events="none" font-family="sans-serif" dy="1.5625" font-size="25" fill="#FFFFFF"/><text text-anchor="middle" pointer-events="none" x="0" y="-5" font-size="10px" fill="#FFFFFF" font-family="sans-serif"> The</text><text text-anchor="middle" pointer-events="none" x="0" y="5" font-size="10px" fill="#FFFFFF" font-family="sans-serif"> Devil's</text><text text-anchor="middle" pointer-events="none" x="0" y="15" font-size="10px" fill="#FFFFFF" font-family="sans-serif"> Advoc…</text></g></g></svg>