<svg xmlns="http://www.w3.org/2000/svg" width="597.4200439453125" height="476.9544372558594" viewBox="-322.6979675292969 -96.23162078857422 597.4200439453125 476.9544372558594"><title>Neo4j Graph Visualization</title><desc>Created using Neo4j (http://www.neo4j.com/)</desc><g class="layer relationships"><g class="relationship" transform="translate(26.61506863128914 351.7228221876851) rotate(245.20341962086354)"><path class="outline" fill="#A5ABB6" stroke="none" d="M 25 0.5 L 34.00091394446629 0.5 L 34.00091394446629 -0.5 L 25 -0.5 Z M 79.56341394446629 0.5 L 88.56432788893258 0.5 L 88.56432788893258 3.5 L 95.56432788893258 0 L 88.56432788893258 -3.5 L 88.56432788893258 -0.5 L 79.56341394446629 -0.5 Z"/><text text-anchor="middle" pointer-events="none" font-size="8px" fill="#000000" x="56.78216394446629" y="3" transform="rotate(180 56.78216394446629 0)" font-family="sans-serif">ACTED_IN</text></g><g class="relationship" transform="translate(96.11547705992837 288.71922539677036) rotate(201.14809950301765)"><path class="outline" fill="#A5ABB6" stroke="none" d="M 25 0.5 L 38.086255008050074 0.5 L 38.086255008050074 -0.5 L 25 -0.5 Z M 83.64875500805007 0.5 L 96.73501001610015 0.5 L 96.73501001610015 3.5 L 103.73501001610015 0 L 96.73501001610015 -3.5 L 96.73501001610015 -0.5 L 83.64875500805007 -0.5 Z"/><text text-anchor="middle" pointer-events="none" font-size="8px" fill="#000000" x="60.867505008050074" y="3" transform="rotate(180 60.867505008050074 0)" font-family="sans-serif">ACTED_IN</text></g><g class="relationship" transform="translate(48.04294234418538 160.07268438498937) rotate(491.21195148748996)"><path class="outline" fill="#A5ABB6" stroke="none" d="M 25 0.5 L 28.353867195322564 0.5 L 28.353867195322564 -0.5 L 25 -0.5 Z M 73.91636719532256 0.5 L 77.27023439064513 0.5 L 77.27023439064513 3.5 L 84.27023439064513 0 L 77.27023439064513 -3.5 L 77.27023439064513 -0.5 L 73.91636719532256 -0.5 Z"/><text text-anchor="middle" pointer-events="none" font-size="8px" fill="#000000" x="51.135117195322564" y="3" transform="rotate(180 51.135117195322564 0)" font-family="sans-serif">ACTED_IN</text></g><g class="relationship" transform="translate(245.7221281433203 60.840736374160116) rotate(184.23260461583754)"><path class="outline" fill="#A5ABB6" stroke="none" d="M 25 0.5 L 38.76456001428822 0.5 L 38.76456001428822 -0.5 L 25 -0.5 Z M 84.32706001428822 0.5 L 98.09162002857644 0.5 L 98.09162002857644 3.5 L 105.09162002857644 0 L 98.09162002857644 -3.5 L 98.09162002857644 -0.5 L 84.32706001428822 -0.5 Z"/><text text-anchor="middle" pointer-events="none" font-size="8px" fill="#000000" x="61.54581001428822" y="3" transform="rotate(180 61.54581001428822 0)" font-family="sans-serif">ACTED_IN</text></g><g class="relationship" transform="translate(223.7393398618269 -17.83999238867332) rotate(507.3367768254926)"><path class="outline" fill="#A5ABB6" stroke="none" d="M 25 0.5 L 37.71654105947129 0.5 L 37.71654105947129 -0.5 L 25 -0.5 Z M 83.2790410594713 0.5 L 95.99558211894258 0.5 L 95.99558211894258 3.5 L 102.99558211894258 0 L 95.99558211894258 -3.5 L 95.99558211894258 -0.5 L 83.2790410594713 -0.5 Z"/><text text-anchor="middle" pointer-events="none" font-size="8px" fill="#000000" x="60.49779105947129" y="3" transform="rotate(180 60.49779105947129 0)" font-family="sans-serif">ACTED_IN</text></g><g class="relationship" transform="translate(211.2400225952476 134.54308929200164) rotate(221.17092828114357)"><path class="outline" fill="#A5ABB6" stroke="none" d="M 25 0.5 L 36.98997584572511 0.5 L 36.98997584572511 -0.5 L 25 -0.5 Z M 82.55247584572511 0.5 L 94.54245169145022 0.5 L 94.54245169145022 3.5 L 101.54245169145022 0 L 94.54245169145022 -3.5 L 94.54245169145022 -0.5 L 82.55247584572511 -0.5 Z"/><text text-anchor="middle" pointer-events="none" font-size="8px" fill="#000000" x="59.77122584572511" y="3" transform="rotate(180 59.77122584572511 0)" font-family="sans-serif">ACTED_IN</text></g><g class="relationship" transform="translate(151.56538903904425 -67.23161999528153) rotate(466.71646634944636)"><path class="outline" fill="#A5ABB6" stroke="none" d="M 25 0.5 L 35.567930052907464 0.5 L 35.567930052907464 -0.5 L 25 -0.5 Z M 81.13043005290746 0.5 L 91.69836010581493 0.5 L 91.69836010581493 3.5 L 98.69836010581493 0 L 91.69836010581493 -3.5 L 91.69836010581493 -0.5 L 81.13043005290746 -0.5 Z"/><text text-anchor="middle" pointer-events="none" font-size="8px" fill="#000000" x="58.349180052907464" y="3" transform="rotate(180 58.349180052907464 0)" font-family="sans-serif">ACTED_IN</text></g><g class="relationship" transform="translate(-135.85496540488256 180.72706737687673) rotate(244.09783707366893)"><path class="outline" fill="#A5ABB6" stroke="none" d="M 25 0.5 L 55.31077222911014 0.5 L 55.31077222911014 -0.5 L 25 -0.5 Z M 100.87327222911014 0.5 L 131.18404445822028 0.5 L 131.18404445822028 3.5 L 138.18404445822028 0 L 131.18404445822028 -3.5 L 131.18404445822028 -0.5 L 100.87327222911014 -0.5 Z"/><text text-anchor="middle" pointer-events="none" font-size="8px" fill="#000000" x="78.09202222911014" y="3" transform="rotate(180 78.09202222911014 0)" font-family="sans-serif">ACTED_IN</text></g><g class="relationship" transform="translate(-135.85496540488256 180.72706737687673) rotate(304.9188062330901)"><path class="outline" fill="#A5ABB6" stroke="none" d="M 25 0.5 L 106.48103059862382 0.5 L 106.48103059862382 -0.5 L 25 -0.5 Z M 152.04353059862382 0.5 L 233.52456119724764 0.5 L 233.52456119724764 3.5 L 240.52456119724764 0 L 233.52456119724764 -3.5 L 233.52456119724764 -0.5 L 152.04353059862382 -0.5 Z"/><text text-anchor="middle" pointer-events="none" font-size="8px" fill="#000000" x="129.26228059862382" y="3" font-family="sans-serif">ACTED_IN</text></g><g class="relationship" transform="translate(-135.85496540488256 180.72706737687673) rotate(184.13706534694467)"><path class="outline" fill="#A5ABB6" stroke="none" d="M 25 0.5 L 52.846410712403966 0.5 L 52.846410712403966 -0.5 L 25 -0.5 Z M 98.40891071240397 0.5 L 126.25532142480793 0.5 L 126.25532142480793 3.5 L 133.25532142480793 0 L 126.25532142480793 -3.5 L 126.25532142480793 -0.5 L 98.40891071240397 -0.5 Z"/><text text-anchor="middle" pointer-events="none" font-size="8px" fill="#000000" x="75.62766071240397" y="3" transform="rotate(180 75.62766071240397 0)" font-family="sans-serif">ACTED_IN</text></g><g class="relationship" transform="translate(-258.74924443044546 -35.99330720908546) rotate(413.5718158823438)"><path class="outline" fill="#A5ABB6" stroke="none" d="M 25 0.5 L 27.39938285578374 0.5 L 27.39938285578374 -0.5 L 25 -0.5 Z M 52.51266410578374 0.5 L 54.91204696156748 0.5 L 54.91204696156748 3.5 L 61.91204696156748 0 L 54.91204696156748 -3.5 L 54.91204696156748 -0.5 L 52.51266410578374 -0.5 Z"/><text text-anchor="middle" pointer-events="none" font-size="8px" fill="#000000" x="39.95602348078374" y="3" font-family="sans-serif">AC…</text></g><g class="relationship" transform="translate(-258.74924443044546 -35.99330720908546) rotate(359.7915200410041)"><path class="outline" fill="#A5ABB6" stroke="none" d="M 25 0.5 L 111.16192575225654 0.5 L 111.16192575225654 -0.5 L 25 -0.5 Z M 156.72442575225654 0.5 L 242.88635150451307 0.5 L 242.88635150451307 3.5 L 249.88635150451307 0 L 242.88635150451307 -3.5 L 242.88635150451307 -0.5 L 156.72442575225654 -0.5 Z"/><text text-anchor="middle" pointer-events="none" font-size="8px" fill="#000000" x="133.94317575225654" y="3" font-family="sans-serif">ACTED_IN</text></g><g class="relationship" transform="translate(-258.74924443044546 -35.99330720908546) rotate(459.6608202579217)"><path class="outline" fill="#A5ABB6" stroke="none" d="M 25 0.5 L 77.84715707263348 0.5 L 77.84715707263348 -0.5 L 25 -0.5 Z M 123.40965707263348 0.5 L 176.25681414526696 0.5 L 176.25681414526696 3.5 L 183.25681414526696 0 L 176.25681414526696 -3.5 L 176.25681414526696 -0.5 L 123.40965707263348 -0.5 Z"/><text text-anchor="middle" pointer-events="none" font-size="8px" fill="#000000" x="100.62840707263348" y="3" transform="rotate(180 100.62840707263348 0)" font-family="sans-serif">ACTED_IN</text></g><g class="relationship" transform="translate(-92.68918923230183 35.479685142785144) rotate(180.77260668538315)"><path class="outline" fill="#A5ABB6" stroke="none" d="M 25 0.5 L 30.949153124207236 0.5 L 30.949153124207236 -0.5 L 25 -0.5 Z M 76.51165312420724 0.5 L 82.46080624841447 0.5 L 82.46080624841447 3.5 L 89.46080624841447 0 L 82.46080624841447 -3.5 L 82.46080624841447 -0.5 L 76.51165312420724 -0.5 Z"/><text text-anchor="middle" pointer-events="none" font-size="8px" fill="#000000" x="53.730403124207236" y="3" transform="rotate(180 53.730403124207236 0)" font-family="sans-serif">ACTED_IN</text></g><g class="relationship" transform="translate(-92.68918923230183 35.479685142785144) rotate(326.3378046378191)"><path class="outline" fill="#A5ABB6" stroke="none" d="M 25 0.5 L 39.09292813197021 0.5 L 39.09292813197021 -0.5 L 25 -0.5 Z M 84.65542813197021 0.5 L 98.74835626394042 0.5 L 98.74835626394042 3.5 L 105.74835626394042 0 L 98.74835626394042 -3.5 L 98.74835626394042 -0.5 L 84.65542813197021 -0.5 Z"/><text text-anchor="middle" pointer-events="none" font-size="8px" fill="#000000" x="61.87417813197021" y="3" font-family="sans-serif">ACTED_IN</text></g><g class="relationship" transform="translate(-92.68918923230183 35.479685142785144) rotate(506.3445602118446)"><path class="outline" fill="#A5ABB6" stroke="none" d="M 25 0.5 L 94.46134030140904 0.5 L 94.46134030140904 -0.5 L 25 -0.5 Z M 140.02384030140905 0.5 L 209.48518060281808 0.5 L 209.48518060281808 3.5 L 216.48518060281808 0 L 209.48518060281808 -3.5 L 209.48518060281808 -0.5 L 140.02384030140905 -0.5 Z"/><text text-anchor="middle" pointer-events="none" font-size="8px" fill="#000000" x="117.24259030140904" y="3" transform="rotate(180 117.24259030140904 0)" font-family="sans-serif">ACTED_IN</text></g><g class="relationship" transform="translate(-231.41010048166407 262.6100245865659) rotate(236.2725881943503)"><path class="outline" fill="#A5ABB6" stroke="none" d="M 25 0.5 L 29.80940942041176 0.5 L 29.80940942041176 -0.5 L 25 -0.5 Z M 75.37190942041175 0.5 L 80.18131884082352 0.5 L 80.18131884082352 3.5 L 87.18131884082352 0 L 80.18131884082352 -3.5 L 80.18131884082352 -0.5 L 75.37190942041175 -0.5 Z"/><text text-anchor="middle" pointer-events="none" font-size="8px" fill="#000000" x="52.59065942041176" y="3" transform="rotate(180 52.59065942041176 0)" font-family="sans-serif">ACTED_IN</text></g></g><g class="layer nodes"><g class="node" transform="translate(26.61506863128914,351.7228221876851)"><circle class="outline" cx="0" cy="0" r="25" fill="#57C7E3" stroke="#23b3d7" stroke-width="2px"/><text text-anchor="middle" pointer-events="none" font-family="sans-serif" dy="1.5625" font-size="25" fill="#2A2C34"/><text text-anchor="middle" pointer-events="none" font-family="sans-serif" dy="1.5625" font-size="25" fill="#2A2C34"/><text text-anchor="middle" pointer-events="none" x="0" y="0" font-size="10px" fill="#2A2C34" font-family="sans-serif"> Tom</text><text text-anchor="middle" pointer-events="none" x="0" y="10" font-size="10px" fill="#2A2C34" font-family="sans-serif"> Hanks</text></g><g class="node" transform="translate(-23.949357569336144,242.27422255154738)"><circle class="outline" cx="0" cy="0" r="25" fill="#F79767" stroke="#f36924" stroke-width="2px"/><text text-anchor="middle" pointer-events="none" font-family="sans-serif" dy="1.5625" font-size="25" fill="#FFFFFF"/><text text-anchor="middle" pointer-events="none" font-family="sans-serif" dy="1.5625" font-size="25" fill="#FFFFFF"/><text text-anchor="middle" pointer-events="none" x="0" y="0" font-size="10px" fill="#FFFFFF" font-family="sans-serif"> Cloud</text><text text-anchor="middle" pointer-events="none" x="0" y="10" font-size="10px" fill="#FFFFFF" font-family="sans-serif"> Atlas</text></g><g class="node" transform="translate(96.11547705992837,288.71922539677036)"><circle class="outline" cx="0" cy="0" r="25" fill="#57C7E3" stroke="#23b3d7" stroke-width="2px"/><text text-anchor="middle" pointer-events="none" font-family="sans-serif" dy="1.5625" font-size="25" fill="#2A2C34"/><text text-anchor="middle" pointer-events="none" font-family="sans-serif" dy="1.5625" font-size="25" fill="#2A2C34"/><text text-anchor="middle" pointer-events="none" x="0" y="0" font-size="10px" fill="#2A2C34" font-family="sans-serif"> Jim</text><text text-anchor="middle" pointer-events="none" x="0" y="10" font-size="10px" fill="#2A2C34" font-family="sans-serif"> Broadb…</text></g><g class="node" transform="translate(48.04294234418538,160.07268438498937)"><circle class="outline" cx="0" cy="0" r="25" fill="#57C7E3" stroke="#23b3d7" stroke-width="2px"/><text text-anchor="middle" pointer-events="none" font-family="sans-serif" dy="1.5625" font-size="25" fill="#2A2C34"/><text text-anchor="middle" pointer-events="none" font-family="sans-serif" dy="1.5625" font-size="25" fill="#2A2C34"/><text text-anchor="middle" pointer-events="none" x="0" y="0" font-size="10px" fill="#2A2C34" font-family="sans-serif"> Halle</text><text text-anchor="middle" pointer-events="none" x="0" y="10" font-size="10px" fill="#2A2C34" font-family="sans-serif"> Berry</text></g><g class="node" transform="translate(245.7221281433203,60.840736374160116)"><circle class="outline" cx="0" cy="0" r="25" fill="#57C7E3" stroke="#23b3d7" stroke-width="2px"/><text text-anchor="middle" pointer-events="none" font-family="sans-serif" dy="1.5625" font-size="25" fill="#2A2C34"/><text text-anchor="middle" pointer-events="none" x="0" y="5" font-size="10px" fill="#2A2C34" font-family="sans-serif"> John Hurt</text></g><g class="node" transform="translate(115.9853149290712,51.239231353042506)"><circle class="outline" cx="0" cy="0" r="25" fill="#F79767" stroke="#f36924" stroke-width="2px"/><text text-anchor="middle" pointer-events="none" font-family="sans-serif" dy="1.5625" font-size="25" fill="#FFFFFF"/><text text-anchor="middle" pointer-events="none" font-family="sans-serif" dy="1.5625" font-size="25" fill="#FFFFFF"/><text text-anchor="middle" pointer-events="none" x="0" y="0" font-size="10px" fill="#FFFFFF" font-family="sans-serif"> V for</text><text text-anchor="middle" pointer-events="none" x="0" y="10" font-size="10px" fill="#FFFFFF" font-family="sans-serif"> Vendetta</text></g><g class="node" transform="translate(223.7393398618269,-17.83999238867332)"><circle class="outline" cx="0" cy="0" r="25" fill="#57C7E3" stroke="#23b3d7" stroke-width="2px"/><text text-anchor="middle" pointer-events="none" font-family="sans-serif" dy="1.5625" font-size="25" fill="#2A2C34"/><text text-anchor="middle" pointer-events="none" font-family="sans-serif" dy="1.5625" font-size="25" fill="#2A2C34"/><text text-anchor="middle" pointer-events="none" x="0" y="0" font-size="10px" fill="#2A2C34" font-family="sans-serif"> Stephen</text><text text-anchor="middle" pointer-events="none" x="0" y="10" font-size="10px" fill="#2A2C34" font-family="sans-serif"> Rea</text></g><g class="node" transform="translate(211.2400225952476,134.54308929200164)"><circle class="outline" cx="0" cy="0" r="25" fill="#57C7E3" stroke="#23b3d7" stroke-width="2px"/><text text-anchor="middle" pointer-events="none" font-family="sans-serif" dy="1.5625" font-size="25" fill="#2A2C34"/><text text-anchor="middle" pointer-events="none" font-family="sans-serif" dy="1.5625" font-size="25" fill="#2A2C34"/><text text-anchor="middle" pointer-events="none" x="0" y="0" font-size="10px" fill="#2A2C34" font-family="sans-serif"> Natalie</text><text text-anchor="middle" pointer-events="none" x="0" y="10" font-size="10px" fill="#2A2C34" font-family="sans-serif"> Portman</text></g><g class="node" transform="translate(151.56538903904425,-67.23161999528153)"><circle class="outline" cx="0" cy="0" r="25" fill="#57C7E3" stroke="#23b3d7" stroke-width="2px"/><text text-anchor="middle" pointer-events="none" font-family="sans-serif" dy="1.5625" font-size="25" fill="#2A2C34"/><text text-anchor="middle" pointer-events="none" x="0" y="5" font-size="10px" fill="#2A2C34" font-family="sans-serif"> Ben Miles</text></g><g class="node" transform="translate(-135.85496540488256,180.72706737687673)"><circle class="outline" cx="0" cy="0" r="25" fill="#57C7E3" stroke="#23b3d7" stroke-width="2px"/><text text-anchor="middle" pointer-events="none" font-family="sans-serif" dy="1.5625" font-size="25" fill="#2A2C34"/><text text-anchor="middle" pointer-events="none" font-family="sans-serif" dy="1.5625" font-size="25" fill="#2A2C34"/><text text-anchor="middle" pointer-events="none" x="0" y="0" font-size="10px" fill="#2A2C34" font-family="sans-serif"> Laurence</text><text text-anchor="middle" pointer-events="none" x="0" y="10" font-size="10px" fill="#2A2C34" font-family="sans-serif"> Fishbur…</text></g><g class="node" transform="translate(-207.1395892875558,33.936281686329295)"><circle class="outline" cx="0" cy="0" r="25" fill="#F79767" stroke="#f36924" stroke-width="2px"/><text text-anchor="middle" pointer-events="none" font-family="sans-serif" dy="1.5625" font-size="25" fill="#FFFFFF"/><text text-anchor="middle" pointer-events="none" font-family="sans-serif" dy="1.5625" font-size="25" fill="#FFFFFF"/><text text-anchor="middle" pointer-events="none" font-family="sans-serif" dy="1.5625" font-size="25" fill="#FFFFFF"/><text text-anchor="middle" pointer-events="none" x="0" y="-5" font-size="10px" fill="#FFFFFF" font-family="sans-serif"> The</text><text text-anchor="middle" pointer-events="none" x="0" y="5" font-size="10px" fill="#FFFFFF" font-family="sans-serif"> Matrix</text><text text-anchor="middle" pointer-events="none" x="0" y="15" font-size="10px" fill="#FFFFFF" font-family="sans-serif"> Revol…</text></g><g class="node" transform="translate(-258.74924443044546,-35.99330720908546)"><circle class="outline" cx="0" cy="0" r="25" fill="#57C7E3" stroke="#23b3d7" stroke-width="2px"/><text text-anchor="middle" pointer-events="none" font-family="sans-serif" dy="1.5625" font-size="25" fill="#2A2C34"/><text text-anchor="middle" pointer-events="none" x="0" y="5" font-size="10px" fill="#2A2C34" font-family="sans-serif"> Carrie-A…</text></g><g class="node" transform="translate(-92.68918923230183,35.479685142785144)"><circle class="outline" cx="0" cy="0" r="25" fill="#57C7E3" stroke="#23b3d7" stroke-width="2px"/><text text-anchor="middle" pointer-events="none" font-family="sans-serif" dy="1.5625" font-size="25" fill="#2A2C34"/><text text-anchor="middle" pointer-events="none" font-family="sans-serif" dy="1.5625" font-size="25" fill="#2A2C34"/><text text-anchor="middle" pointer-events="none" x="0" y="0" font-size="10px" fill="#2A2C34" font-family="sans-serif"> Keanu</text><text text-anchor="middle" pointer-events="none" x="0" y="10" font-size="10px" fill="#2A2C34" font-family="sans-serif"> Reeves</text></g><g class="node" transform="translate(16.135287347803498,-36.9935234434807)"><circle class="outline" cx="0" cy="0" r="25" fill="#F79767" stroke="#f36924" stroke-width="2px"/><text text-anchor="middle" pointer-events="none" font-family="sans-serif" dy="1.5625" font-size="25" fill="#FFFFFF"/><text text-anchor="middle" pointer-events="none" font-family="sans-serif" dy="1.5625" font-size="25" fill="#FFFFFF"/><text text-anchor="middle" pointer-events="none" font-family="sans-serif" dy="1.5625" font-size="25" fill="#FFFFFF"/><text text-anchor="middle" pointer-events="none" x="0" y="-5" font-size="10px" fill="#FFFFFF" font-family="sans-serif"> The</text><text text-anchor="middle" pointer-events="none" x="0" y="5" font-size="10px" fill="#FFFFFF" font-family="sans-serif"> Matrix</text><text text-anchor="middle" pointer-events="none" x="0" y="15" font-size="10px" fill="#FFFFFF" font-family="sans-serif"> Reloa…</text></g><g class="node" transform="translate(-231.41010048166407,262.6100245865659)"><circle class="outline" cx="0" cy="0" r="25" fill="#57C7E3" stroke="#23b3d7" stroke-width="2px"/><text text-anchor="middle" pointer-events="none" font-family="sans-serif" dy="1.5625" font-size="25" fill="#2A2C34"/><text text-anchor="middle" pointer-events="none" font-family="sans-serif" dy="1.5625" font-size="25" fill="#2A2C34"/><text text-anchor="middle" pointer-events="none" x="0" y="0" font-size="10px" fill="#2A2C34" font-family="sans-serif"> Emil</text><text text-anchor="middle" pointer-events="none" x="0" y="10" font-size="10px" fill="#2A2C34" font-family="sans-serif"> Eifrem</text></g><g class="node" transform="translate(-293.6979243637258,169.31010340276333)"><circle class="outline" cx="0" cy="0" r="25" fill="#F79767" stroke="#f36924" stroke-width="2px"/><text text-anchor="middle" pointer-events="none" font-family="sans-serif" dy="1.5625" font-size="25" fill="#FFFFFF"/><text text-anchor="middle" pointer-events="none" font-family="sans-serif" dy="1.5625" font-size="25" fill="#FFFFFF"/><text text-anchor="middle" pointer-events="none" x="0" y="0" font-size="10px" fill="#FFFFFF" font-family="sans-serif"> The</text><text text-anchor="middle" pointer-events="none" x="0" y="10" font-size="10px" fill="#FFFFFF" font-family="sans-serif"> Matrix</text></g></g></svg>