<svg xmlns="http://www.w3.org/2000/svg" width="717.5269775390625" height="307.40625" viewBox="-389.7774658203125 -63.66085433959961 717.5269775390625 307.40625"><title>Neo4j Graph Visualization</title><desc>Created using Neo4j (http://www.neo4j.com/)</desc><g class="layer relationships"><g class="relationship" transform="translate(298.74947407870906 -4.347232091867141) rotate(185.3306986043168)"><path class="outline" fill="#A5ABB6" stroke="none" d="M 25 0.5 L 53.24805396167696 0.5 L 53.24805396167696 -0.5 L 25 -0.5 Z M 100.13867896167696 0.5 L 128.38673292335392 0.5 L 128.38673292335392 3.5 L 135.38673292335392 0 L 128.38673292335392 -3.5 L 128.38673292335392 -0.5 L 100.13867896167696 -0.5 Z"/><text text-anchor="middle" pointer-events="none" font-size="8px" fill="#000000" x="76.69336646167696" y="3" transform="rotate(180 76.69336646167696 0)" font-family="sans-serif">DIRECTED</text></g><g class="relationship" transform="translate(-116.62461835803174 -34.66085030180085) rotate(482.2857600745889)"><path class="outline" fill="#A5ABB6" stroke="none" d="M 24.018736134675446,6.953439040707552 L 24.277555179777966,5.987513214418485 A 225.60816497773357 225.60816497773357 0 0 0 54.566501796785474,11.91778176881067 L 54.44193740784753,12.909993295153981 A 226.60816497773357 226.60816497773357 0 0 1 24.018736134675446,6.953439040707552 Z M 106.22157057908223,13.44765629130083 L 106.11763643542616,12.453072109955428 A 225.60816497773357 225.60816497773357 0 0 0 136.52319491394772,7.153035704010385 L 135.80707788095893,4.239759816789384 L 143.4401914896282,5.967641941573351 L 137.47801762459946,11.037403553638388 L 136.76190059161067,8.124127666417387 A 226.60816497773357 226.60816497773357 0 0 1 106.22157057908223,13.44765629130083"/><text text-anchor="middle" pointer-events="none" font-size="8px" fill="#000000" x="80.32153737266162" y="17.16273642790094" transform="rotate(180 80.32153737266162 14.162736427900938)" font-family="sans-serif">PRODUCED</text></g><g class="relationship" transform="translate(-116.62461835803174 -34.66085030180085) rotate(482.2857600745889)"><path class="outline" fill="#A5ABB6" stroke="none" d="M 24.018736134675446,-6.953439040707552 L 24.277555179777966,-5.987513214418485 A 225.60816497773357 225.60816497773357 0 0 1 62.506458985322865,-12.77213639938185 L 62.417088168343284,-13.768134821605685 A 226.60816497773357 226.60816497773357 0 0 0 24.018736134675446,-6.953439040707552 Z M 98.23031999878995,-14.140007860257441 L 98.1616504740459,-13.142368398141286 A 225.60816497773357 225.60816497773357 0 0 1 136.52319491394772,-7.153035704010385 L 135.80707788095893,-4.239759816789384 L 143.4401914896282,-5.967641941573351 L 137.47801762459946,-11.037403553638388 L 136.76190059161067,-8.124127666417387 A 226.60816497773357 226.60816497773357 0 0 0 98.23031999878995,-14.140007860257441"/><text text-anchor="middle" pointer-events="none" font-size="8px" fill="#000000" x="80.32153737266158" y="-11.162736427900938" transform="rotate(180 80.32153737266158 -14.162736427900938)" font-family="sans-serif">WROTE</text></g><g class="relationship" transform="translate(-116.62461835803174 -34.66085030180085) rotate(363.4497460092228)"><path class="outline" fill="#A5ABB6" stroke="none" d="M 25 0.5 L 101.12727108792222 0.5 L 101.12727108792222 -0.5 L 25 -0.5 Z M 148.01789608792222 0.5 L 224.14516717584445 0.5 L 224.14516717584445 3.5 L 231.14516717584445 0 L 224.14516717584445 -3.5 L 224.14516717584445 -0.5 L 148.01789608792222 -0.5 Z"/><text text-anchor="middle" pointer-events="none" font-size="8px" fill="#000000" x="124.57258358792222" y="3" font-family="sans-serif">DIRECTED</text></g><g class="relationship" transform="translate(-116.62461835803174 -34.66085030180085) rotate(411.7386985978148)"><path class="outline" fill="#A5ABB6" stroke="none" d="M 25 0.5 L 47.11436540667893 0.5 L 47.11436540667893 -0.5 L 25 -0.5 Z M 94.00499040667893 0.5 L 116.11935581335786 0.5 L 116.11935581335786 3.5 L 123.11935581335786 0 L 116.11935581335786 -3.5 L 116.11935581335786 -0.5 L 94.00499040667893 -0.5 Z"/><text text-anchor="middle" pointer-events="none" font-size="8px" fill="#000000" x="70.55967790667893" y="3" font-family="sans-serif">DIRECTED</text></g><g class="relationship" transform="translate(-116.62461835803174 -34.66085030180085) rotate(380.9937282984819)"><path class="outline" fill="#A5ABB6" stroke="none" d="M 25 0.5 L 67.4027350734132 0.5 L 67.4027350734132 -0.5 L 25 -0.5 Z M 114.2933600734132 0.5 L 156.6960951468264 0.5 L 156.6960951468264 3.5 L 163.6960951468264 0 L 156.6960951468264 -3.5 L 156.6960951468264 -0.5 L 114.2933600734132 -0.5 Z"/><text text-anchor="middle" pointer-events="none" font-size="8px" fill="#000000" x="90.8480475734132" y="3" font-family="sans-serif">DIRECTED</text></g><g class="relationship" transform="translate(-116.62461835803174 -34.66085030180085) rotate(435.59854898008217)"><path class="outline" fill="#A5ABB6" stroke="none" d="M 25 0.5 L 42.34999960236998 0.5 L 42.34999960236998 -0.5 L 25 -0.5 Z M 89.24062460236998 0.5 L 106.59062420473995 0.5 L 106.59062420473995 3.5 L 113.59062420473995 0 L 106.59062420473995 -3.5 L 106.59062420473995 -0.5 L 89.24062460236998 -0.5 Z"/><text text-anchor="middle" pointer-events="none" font-size="8px" fill="#000000" x="65.79531210236998" y="3" font-family="sans-serif">DIRECTED</text></g><g class="relationship" transform="translate(-26.353639216676186 214.74539634320763) rotate(210.8946522950074)"><path class="outline" fill="#A5ABB6" stroke="none" d="M 24.018736134675446,6.953439040707552 L 24.277555179777966,5.987513214418485 A 307.42715452366303 307.42715452366303 0 0 0 75.46316113792771,15.14987100727842 L 75.37083879035166,16.145600179361907 A 308.42715452366303 308.42715452366303 0 0 1 24.018736134675446,6.953439040707552 Z M 127.17326417049738,16.579385528320984 L 127.09762975868838,15.582249912795021 A 307.42715452366303 307.42715452366303 0 0 0 178.42949534623193,7.278357275620641 L 177.70167475689965,4.367983212077608 L 185.34167159272107,6.065171577769121 L 179.399922798675,11.158856027011351 L 178.6721022093427,8.248481963468318 A 308.42715452366303 308.42715452366303 0 0 1 127.17326417049738,16.579385528320984"/><text text-anchor="middle" pointer-events="none" font-size="8px" fill="#000000" x="101.26711467257392" y="19.952043932296363" transform="rotate(180 101.26711467257392 16.952043932296363)" font-family="sans-serif">PRODUCED</text></g><g class="relationship" transform="translate(-26.353639216676186 214.74539634320763) rotate(210.8946522950074)"><path class="outline" fill="#A5ABB6" stroke="none" d="M 24.018736134675446,-6.953439040707552 L 24.277555179777966,-5.987513214418485 A 307.42715452366303 307.42715452366303 0 0 1 83.42863465705591,-15.784123567731115 L 83.36222242640324,-16.781915838506848 A 308.42715452366303 308.42715452366303 0 0 0 24.018736134675446,-6.953439040707552 Z M 119.17234512033663,-17.081784164266935 L 119.12265174171104,-16.08301964341092 A 307.42715452366303 307.42715452366303 0 0 1 178.42949534623193,-7.278357275620641 L 177.70167475689965,-4.367983212077608 L 185.34167159272107,-6.065171577769121 L 179.399922798675,-11.158856027011351 L 178.6721022093427,-8.248481963468318 A 308.42715452366303 308.42715452366303 0 0 0 119.17234512033663,-17.081784164266935"/><text text-anchor="middle" pointer-events="none" font-size="8px" fill="#000000" x="101.26711467257394" y="-13.952043932296363" transform="rotate(180 101.26711467257394 -16.952043932296363)" font-family="sans-serif">WROTE</text></g><g class="relationship" transform="translate(-26.353639216676186 214.74539634320763) rotate(305.2565301168718)"><path class="outline" fill="#A5ABB6" stroke="none" d="M 25 0.5 L 116.33178297398962 0.5 L 116.33178297398962 -0.5 L 25 -0.5 Z M 163.22240797398962 0.5 L 254.55419094797924 0.5 L 254.55419094797924 3.5 L 261.55419094797924 0 L 254.55419094797924 -3.5 L 254.55419094797924 -0.5 L 163.22240797398962 -0.5 Z"/><text text-anchor="middle" pointer-events="none" font-size="8px" fill="#000000" x="139.77709547398962" y="3" font-family="sans-serif">DIRECTED</text></g><g class="relationship" transform="translate(-26.353639216676186 214.74539634320763) rotate(270.62489936457126)"><path class="outline" fill="#A5ABB6" stroke="none" d="M 25 0.5 L 39.61049520104487 0.5 L 39.61049520104487 -0.5 L 25 -0.5 Z M 86.50112020104487 0.5 L 101.11161540208974 0.5 L 101.11161540208974 3.5 L 108.11161540208974 0 L 101.11161540208974 -3.5 L 101.11161540208974 -0.5 L 86.50112020104487 -0.5 Z"/><text text-anchor="middle" pointer-events="none" font-size="8px" fill="#000000" x="63.05580770104487" y="3" font-family="sans-serif">DIRECTED</text></g><g class="relationship" transform="translate(-26.353639216676186 214.74539634320763) rotate(295.2900990184177)"><path class="outline" fill="#A5ABB6" stroke="none" d="M 25 0.5 L 73.59199518294747 0.5 L 73.59199518294747 -0.5 L 25 -0.5 Z M 120.48262018294747 0.5 L 169.07461536589494 0.5 L 169.07461536589494 3.5 L 176.07461536589494 0 L 169.07461536589494 -3.5 L 169.07461536589494 -0.5 L 120.48262018294747 -0.5 Z"/><text text-anchor="middle" pointer-events="none" font-size="8px" fill="#000000" x="97.03730768294747" y="3" font-family="sans-serif">DIRECTED</text></g><g class="relationship" transform="translate(-26.353639216676186 214.74539634320763) rotate(244.14926805623094)"><path class="outline" fill="#A5ABB6" stroke="none" d="M 25 0.5 L 37.043100270612904 0.5 L 37.043100270612904 -0.5 L 25 -0.5 Z M 83.93372527061291 0.5 L 95.97682554122581 0.5 L 95.97682554122581 3.5 L 102.97682554122581 0 L 95.97682554122581 -3.5 L 95.97682554122581 -0.5 L 83.93372527061291 -0.5 Z"/><text text-anchor="middle" pointer-events="none" font-size="8px" fill="#000000" x="60.488412770612904" y="3" transform="rotate(180 60.488412770612904 0)" font-family="sans-serif">DIRECTED</text></g><g class="relationship" transform="translate(-360.7774771972237 34.04251633322349) rotate(385.3061210256225)"><path class="outline" fill="#A5ABB6" stroke="none" d="M 25 0.5 L 58.54227201815951 0.5 L 58.54227201815951 -0.5 L 25 -0.5 Z M 105.43289701815951 0.5 L 138.97516903631902 0.5 L 138.97516903631902 3.5 L 145.97516903631902 0 L 138.97516903631902 -3.5 L 138.97516903631902 -0.5 L 105.43289701815951 -0.5 Z"/><text text-anchor="middle" pointer-events="none" font-size="8px" fill="#000000" x="81.98758451815951" y="3" font-family="sans-serif">DIRECTED</text></g></g><g class="layer nodes"><g class="node" transform="translate(298.74947407870906,-4.347232091867141)"><circle class="outline" cx="0" cy="0" r="25" fill="#57C7E3" stroke="#23b3d7" stroke-width="2px"/><text text-anchor="middle" pointer-events="none" font-family="sans-serif" dy="1.5625" font-size="25" fill="#2A2C34"/><text text-anchor="middle" pointer-events="none" font-family="sans-serif" dy="1.5625" font-size="25" fill="#2A2C34"/><text text-anchor="middle" pointer-events="none" x="0" y="0" font-size="10px" fill="#2A2C34" font-family="sans-serif"> Tom</text><text text-anchor="middle" pointer-events="none" x="0" y="10" font-size="10px" fill="#2A2C34" font-family="sans-serif"> Tykwer</text></g><g class="node" transform="translate(139.05640353163605,-19.2478131904292)"><circle class="outline" cx="0" cy="0" r="25" fill="#F79767" stroke="#f36924" stroke-width="2px"/><text text-anchor="middle" pointer-events="none" font-family="sans-serif" dy="1.5625" font-size="25" fill="#FFFFFF"/><text text-anchor="middle" pointer-events="none" font-family="sans-serif" dy="1.5625" font-size="25" fill="#FFFFFF"/><text text-anchor="middle" pointer-events="none" x="0" y="0" font-size="10px" fill="#FFFFFF" font-family="sans-serif"> Cloud</text><text text-anchor="middle" pointer-events="none" x="0" y="10" font-size="10px" fill="#FFFFFF" font-family="sans-serif"> Atlas</text></g><g class="node" transform="translate(-116.62461835803174,-34.66085030180085)"><circle class="outline" cx="0" cy="0" r="25" fill="#57C7E3" stroke="#23b3d7" stroke-width="2px"/><text text-anchor="middle" pointer-events="none" font-family="sans-serif" dy="1.5625" font-size="25" fill="#2A2C34"/><text text-anchor="middle" pointer-events="none" font-family="sans-serif" dy="1.5625" font-size="25" fill="#2A2C34"/><text text-anchor="middle" pointer-events="none" x="0" y="0" font-size="10px" fill="#2A2C34" font-family="sans-serif"> Lana</text><text text-anchor="middle" pointer-events="none" x="0" y="10" font-size="10px" fill="#2A2C34" font-family="sans-serif"> Wacho…</text></g><g class="node" transform="translate(-26.353639216676186,214.74539634320763)"><circle class="outline" cx="0" cy="0" r="25" fill="#57C7E3" stroke="#23b3d7" stroke-width="2px"/><text text-anchor="middle" pointer-events="none" font-family="sans-serif" dy="1.5625" font-size="25" fill="#2A2C34"/><text text-anchor="middle" pointer-events="none" font-family="sans-serif" dy="1.5625" font-size="25" fill="#2A2C34"/><text text-anchor="middle" pointer-events="none" x="0" y="0" font-size="10px" fill="#2A2C34" font-family="sans-serif"> Lilly</text><text text-anchor="middle" pointer-events="none" x="0" y="10" font-size="10px" fill="#2A2C34" font-family="sans-serif"> Wacho…</text></g><g class="node" transform="translate(-360.7774771972237,34.04251633322349)"><circle class="outline" cx="0" cy="0" r="25" fill="#57C7E3" stroke="#23b3d7" stroke-width="2px"/><text text-anchor="middle" pointer-events="none" font-family="sans-serif" dy="1.5625" font-size="25" fill="#2A2C34"/><text text-anchor="middle" pointer-events="none" font-family="sans-serif" dy="1.5625" font-size="25" fill="#2A2C34"/><text text-anchor="middle" pointer-events="none" x="0" y="0" font-size="10px" fill="#2A2C34" font-family="sans-serif"> James</text><text text-anchor="middle" pointer-events="none" x="0" y="10" font-size="10px" fill="#2A2C34" font-family="sans-serif"> Marshall</text></g><g class="node" transform="translate(-206.20961728798883,107.12661248332317)"><circle class="outline" cx="0" cy="0" r="25" fill="#F79767" stroke="#f36924" stroke-width="2px"/><text text-anchor="middle" pointer-events="none" font-family="sans-serif" dy="1.5625" font-size="25" fill="#FFFFFF"/><text text-anchor="middle" pointer-events="none" font-family="sans-serif" dy="1.5625" font-size="25" fill="#FFFFFF"/><text text-anchor="middle" pointer-events="none" x="0" y="0" font-size="10px" fill="#FFFFFF" font-family="sans-serif"> V for</text><text text-anchor="middle" pointer-events="none" x="0" y="10" font-size="10px" fill="#FFFFFF" font-family="sans-serif"> Vendetta</text></g><g class="node" transform="translate(-24.90187932287108,81.64169786655152)"><circle class="outline" cx="0" cy="0" r="25" fill="#F79767" stroke="#f36924" stroke-width="2px"/><text text-anchor="middle" pointer-events="none" font-family="sans-serif" dy="1.5625" font-size="25" fill="#FFFFFF"/><text text-anchor="middle" pointer-events="none" font-family="sans-serif" dy="1.5625" font-size="25" fill="#FFFFFF"/><text text-anchor="middle" pointer-events="none" font-family="sans-serif" dy="1.5625" font-size="25" fill="#FFFFFF"/><text text-anchor="middle" pointer-events="none" x="0" y="-5" font-size="10px" fill="#FFFFFF" font-family="sans-serif"> The</text><text text-anchor="middle" pointer-events="none" x="0" y="5" font-size="10px" fill="#FFFFFF" font-family="sans-serif"> Matrix</text><text text-anchor="middle" pointer-events="none" x="0" y="15" font-size="10px" fill="#FFFFFF" font-family="sans-serif"> Revol…</text></g><g class="node" transform="translate(59.545763669983245,32.942498873838474)"><circle class="outline" cx="0" cy="0" r="25" fill="#F79767" stroke="#f36924" stroke-width="2px"/><text text-anchor="middle" pointer-events="none" font-family="sans-serif" dy="1.5625" font-size="25" fill="#FFFFFF"/><text text-anchor="middle" pointer-events="none" font-family="sans-serif" dy="1.5625" font-size="25" fill="#FFFFFF"/><text text-anchor="middle" pointer-events="none" font-family="sans-serif" dy="1.5625" font-size="25" fill="#FFFFFF"/><text text-anchor="middle" pointer-events="none" x="0" y="-5" font-size="10px" fill="#FFFFFF" font-family="sans-serif"> The</text><text text-anchor="middle" pointer-events="none" x="0" y="5" font-size="10px" fill="#FFFFFF" font-family="sans-serif"> Matrix</text><text text-anchor="middle" pointer-events="none" x="0" y="15" font-size="10px" fill="#FFFFFF" font-family="sans-serif"> Reloa…</text></g><g class="node" transform="translate(-82.15513212292345,99.57482169393629)"><circle class="outline" cx="0" cy="0" r="25" fill="#F79767" stroke="#f36924" stroke-width="2px"/><text text-anchor="middle" pointer-events="none" font-family="sans-serif" dy="1.5625" font-size="25" fill="#FFFFFF"/><text text-anchor="middle" pointer-events="none" font-family="sans-serif" dy="1.5625" font-size="25" fill="#FFFFFF"/><text text-anchor="middle" pointer-events="none" x="0" y="0" font-size="10px" fill="#FFFFFF" font-family="sans-serif"> The</text><text text-anchor="middle" pointer-events="none" x="0" y="10" font-size="10px" fill="#FFFFFF" font-family="sans-serif"> Matrix</text></g></g></svg>