<svg xmlns="http://www.w3.org/2000/svg" width="237.97789001464844" height="247.41290283203125" viewBox="-8.940286636352539 -9.794546127319336 237.97789001464844 247.41290283203125"><title>Neo4j Graph Visualization</title><desc>Created using Neo4j (http://www.neo4j.com/)</desc><g class="layer relationships"><g class="relationship" transform="translate(125.4181983394027 128.47236800603227) rotate(408.04437660167184)"><path class="outline" fill="#A5ABB6" stroke="none" d="M 25 0.5 L 27.604721230548876 0.5 L 27.604721230548876 -0.5 L 25 -0.5 Z M 73.16722123054888 0.5 L 75.77194246109775 0.5 L 75.77194246109775 3.5 L 82.77194246109775 0 L 75.77194246109775 -3.5 L 75.77194246109775 -0.5 L 73.16722123054888 -0.5 Z"/><text text-anchor="middle" pointer-events="none" font-size="8px" fill="#000000" x="50.385971230548876" y="3" font-family="sans-serif">ACTED_IN</text></g><g class="relationship" transform="translate(125.4181983394027 128.47236800603227) rotate(311.356035440026)"><path class="outline" fill="#A5ABB6" stroke="none" d="M 25 0.5 L 30.18562321277905 0.5 L 30.18562321277905 -0.5 L 25 -0.5 Z M 75.74812321277905 0.5 L 80.9337464255581 0.5 L 80.9337464255581 3.5 L 87.9337464255581 0 L 80.9337464255581 -3.5 L 80.9337464255581 -0.5 L 75.74812321277905 -0.5 Z"/><text text-anchor="middle" pointer-events="none" font-size="8px" fill="#000000" x="52.96687321277905" y="3" font-family="sans-serif">ACTED_IN</text></g><g class="relationship" transform="translate(125.4181983394027 128.47236800603227) rotate(254.78300400378566)"><path class="outline" fill="#A5ABB6" stroke="none" d="M 25 0.5 L 30.337329086669847 0.5 L 30.337329086669847 -0.5 L 25 -0.5 Z M 75.89982908666985 0.5 L 81.2371581733397 0.5 L 81.2371581733397 3.5 L 88.2371581733397 0 L 81.2371581733397 -3.5 L 81.2371581733397 -0.5 L 75.89982908666985 -0.5 Z"/><text text-anchor="middle" pointer-events="none" font-size="8px" fill="#000000" x="53.11857908666985" y="3" transform="rotate(180 53.11857908666985 0)" font-family="sans-serif">ACTED_IN</text></g><g class="relationship" transform="translate(125.4181983394027 128.47236800603227) rotate(201.4857107329678)"><path class="outline" fill="#A5ABB6" stroke="none" d="M 25 0.5 L 30.33211465524149 0.5 L 30.33211465524149 -0.5 L 25 -0.5 Z M 75.8946146552415 0.5 L 81.22672931048298 0.5 L 81.22672931048298 3.5 L 88.22672931048298 0 L 81.22672931048298 -3.5 L 81.22672931048298 -0.5 L 75.8946146552415 -0.5 Z"/><text text-anchor="middle" pointer-events="none" font-size="8px" fill="#000000" x="53.11336465524149" y="3" transform="rotate(180 53.11336465524149 0)" font-family="sans-serif">ACTED_IN</text></g><g class="relationship" transform="translate(125.4181983394027 128.47236800603227) rotate(504.88061324552166)"><path class="outline" fill="#A5ABB6" stroke="none" d="M 25 0.5 L 30.169737363886334 0.5 L 30.169737363886334 -0.5 L 25 -0.5 Z M 75.73223736388633 0.5 L 80.90197472777267 0.5 L 80.90197472777267 3.5 L 87.90197472777267 0 L 80.90197472777267 -3.5 L 80.90197472777267 -0.5 L 75.73223736388633 -0.5 Z"/><text text-anchor="middle" pointer-events="none" font-size="8px" fill="#000000" x="52.950987363886334" y="3" transform="rotate(180 52.950987363886334 0)" font-family="sans-serif">ACTED_IN</text></g></g><g class="layer nodes"><g class="node" transform="translate(125.4181983394027,128.47236800603227)"><circle class="outline" cx="0" cy="0" r="25" fill="#57C7E3" stroke="#23b3d7" stroke-width="2px"/><text text-anchor="middle" pointer-events="none" font-family="sans-serif" dy="1.5625" font-size="25" fill="#2A2C34"/><text text-anchor="middle" pointer-events="none" font-family="sans-serif" dy="1.5625" font-size="25" fill="#2A2C34"/><text text-anchor="middle" pointer-events="none" x="0" y="0" font-size="10px" fill="#2A2C34" font-family="sans-serif"> Hugo</text><text text-anchor="middle" pointer-events="none" x="0" y="10" font-size="10px" fill="#2A2C34" font-family="sans-serif"> Weaving</text></g><g class="node" transform="translate(197.46965066703552,208.61835854403122)"><circle class="outline" cx="0" cy="0" r="25" fill="#F79767" stroke="#f36924" stroke-width="2px"/><text text-anchor="middle" pointer-events="none" font-family="sans-serif" dy="1.5625" font-size="25" fill="#FFFFFF"/><text text-anchor="middle" pointer-events="none" font-family="sans-serif" dy="1.5625" font-size="25" fill="#FFFFFF"/><text text-anchor="middle" pointer-events="none" x="0" y="0" font-size="10px" fill="#FFFFFF" font-family="sans-serif"> Cloud</text><text text-anchor="middle" pointer-events="none" x="0" y="10" font-size="10px" fill="#FFFFFF" font-family="sans-serif"> Atlas</text></g><g class="node" transform="translate(200.03760046325914,43.70223229545043)"><circle class="outline" cx="0" cy="0" r="25" fill="#F79767" stroke="#f36924" stroke-width="2px"/><text text-anchor="middle" pointer-events="none" font-family="sans-serif" dy="1.5625" font-size="25" fill="#FFFFFF"/><text text-anchor="middle" pointer-events="none" font-family="sans-serif" dy="1.5625" font-size="25" fill="#FFFFFF"/><text text-anchor="middle" pointer-events="none" x="0" y="0" font-size="10px" fill="#FFFFFF" font-family="sans-serif"> V for</text><text text-anchor="middle" pointer-events="none" x="0" y="10" font-size="10px" fill="#FFFFFF" font-family="sans-serif"> Vendetta</text></g><g class="node" transform="translate(95.69622702870576,19.205454383563456)"><circle class="outline" cx="0" cy="0" r="25" fill="#F79767" stroke="#f36924" stroke-width="2px"/><text text-anchor="middle" pointer-events="none" font-family="sans-serif" dy="1.5625" font-size="25" fill="#FFFFFF"/><text text-anchor="middle" pointer-events="none" font-family="sans-serif" dy="1.5625" font-size="25" fill="#FFFFFF"/><text text-anchor="middle" pointer-events="none" font-family="sans-serif" dy="1.5625" font-size="25" fill="#FFFFFF"/><text text-anchor="middle" pointer-events="none" x="0" y="-5" font-size="10px" fill="#FFFFFF" font-family="sans-serif"> The</text><text text-anchor="middle" pointer-events="none" x="0" y="5" font-size="10px" fill="#FFFFFF" font-family="sans-serif"> Matrix</text><text text-anchor="middle" pointer-events="none" x="0" y="15" font-size="10px" fill="#FFFFFF" font-family="sans-serif"> Revol…</text></g><g class="node" transform="translate(20.059714182498887,87.00090737936956)"><circle class="outline" cx="0" cy="0" r="25" fill="#F79767" stroke="#f36924" stroke-width="2px"/><text text-anchor="middle" pointer-events="none" font-family="sans-serif" dy="1.5625" font-size="25" fill="#FFFFFF"/><text text-anchor="middle" pointer-events="none" font-family="sans-serif" dy="1.5625" font-size="25" fill="#FFFFFF"/><text text-anchor="middle" pointer-events="none" font-family="sans-serif" dy="1.5625" font-size="25" fill="#FFFFFF"/><text text-anchor="middle" pointer-events="none" x="0" y="-5" font-size="10px" fill="#FFFFFF" font-family="sans-serif"> The</text><text text-anchor="middle" pointer-events="none" x="0" y="5" font-size="10px" fill="#FFFFFF" font-family="sans-serif"> Matrix</text><text text-anchor="middle" pointer-events="none" x="0" y="15" font-size="10px" fill="#FFFFFF" font-family="sans-serif"> Reloa…</text></g><g class="node" transform="translate(33.069451151674585,193.42284752918667)"><circle class="outline" cx="0" cy="0" r="25" fill="#F79767" stroke="#f36924" stroke-width="2px"/><text text-anchor="middle" pointer-events="none" font-family="sans-serif" dy="1.5625" font-size="25" fill="#FFFFFF"/><text text-anchor="middle" pointer-events="none" font-family="sans-serif" dy="1.5625" font-size="25" fill="#FFFFFF"/><text text-anchor="middle" pointer-events="none" x="0" y="0" font-size="10px" fill="#FFFFFF" font-family="sans-serif"> The</text><text text-anchor="middle" pointer-events="none" x="0" y="10" font-size="10px" fill="#FFFFFF" font-family="sans-serif"> Matrix</text></g></g></svg>