<svg xmlns="http://www.w3.org/2000/svg" width="282.31768798828125" height="277.6736755371094" viewBox="-47.474761962890625 -42.36215591430664 282.31768798828125 277.6736755371094"><title>Neo4j Graph Visualization</title><desc>Created using Neo4j (http://www.neo4j.com/)</desc><g class="layer relationships"><g class="relationship" transform="translate(124.55732674210984 206.31152964503116) rotate(254.86351058839404)"><path class="outline" fill="#A5ABB6" stroke="none" d="M 25 0.5 L 30.547785524641952 0.5 L 30.547785524641952 -0.5 L 25 -0.5 Z M 77.43841052464195 0.5 L 82.9861960492839 0.5 L 82.9861960492839 3.5 L 89.9861960492839 0 L 82.9861960492839 -3.5 L 82.9861960492839 -0.5 L 77.43841052464195 -0.5 Z"/><text text-anchor="middle" pointer-events="none" font-size="8px" fill="#000000" x="53.99309802464195" y="3" transform="rotate(180 53.99309802464195 0)" font-family="sans-serif">DIRECTED</text></g><g class="relationship" transform="translate(205.84292483508892 123.10845950015995) rotate(194.01985631452283)"><path class="outline" fill="#A5ABB6" stroke="none" d="M 25 0.5 L 31.0828807022423 0.5 L 31.0828807022423 -0.5 L 25 -0.5 Z M 76.6453807022423 0.5 L 82.7282614044846 0.5 L 82.7282614044846 3.5 L 89.7282614044846 0 L 82.7282614044846 -3.5 L 82.7282614044846 -0.5 L 76.6453807022423 -0.5 Z"/><text text-anchor="middle" pointer-events="none" font-size="8px" fill="#000000" x="53.8641307022423" y="3" transform="rotate(180 53.8641307022423 0)" font-family="sans-serif">ACTED_IN</text></g><g class="relationship" transform="translate(175.99401359242233 13.12111729098336) rotate(494.7438397519675)"><path class="outline" fill="#A5ABB6" stroke="none" d="M 25 0.5 L 36.47474269743097 0.5 L 36.47474269743097 -0.5 L 25 -0.5 Z M 72.24818019743097 0.5 L 83.72292289486194 0.5 L 83.72292289486194 3.5 L 90.72292289486194 0 L 83.72292289486194 -3.5 L 83.72292289486194 -0.5 L 72.24818019743097 -0.5 Z"/><text text-anchor="middle" pointer-events="none" font-size="8px" fill="#000000" x="54.36146144743097" y="3" transform="rotate(180 54.36146144743097 0)" font-family="sans-serif">WROTE</text></g><g class="relationship" transform="translate(60.0607465398363 -13.36215692137691) rotate(432.40135901004743)"><path class="outline" fill="#A5ABB6" stroke="none" d="M 25 0.5 L 30.725153154616635 0.5 L 30.725153154616635 -0.5 L 25 -0.5 Z M 76.28765315461663 0.5 L 82.01280630923327 0.5 L 82.01280630923327 3.5 L 89.01280630923327 0 L 82.01280630923327 -3.5 L 82.01280630923327 -0.5 L 76.28765315461663 -0.5 Z"/><text text-anchor="middle" pointer-events="none" font-size="8px" fill="#000000" x="53.506403154616635" y="3" font-family="sans-serif">ACTED_IN</text></g><g class="relationship" transform="translate(-18.474763987778925 81.96514876906757) rotate(366.73709865398945)"><path class="outline" fill="#A5ABB6" stroke="none" d="M 25 0.5 L 30.61511149123379 0.5 L 30.61511149123379 -0.5 L 25 -0.5 Z M 76.17761149123379 0.5 L 81.79272298246758 0.5 L 81.79272298246758 3.5 L 88.79272298246758 0 L 81.79272298246758 -3.5 L 81.79272298246758 -0.5 L 76.17761149123379 -0.5 Z"/><text text-anchor="middle" pointer-events="none" font-size="8px" fill="#000000" x="53.39636149123379" y="3" font-family="sans-serif">ACTED_IN</text></g><g class="relationship" transform="translate(21.123760306187215 184.77653714653425) rotate(309.3707659514775)"><path class="outline" fill="#A5ABB6" stroke="none" d="M 25 0.5 L 36.47569956636674 0.5 L 36.47569956636674 -0.5 L 25 -0.5 Z M 72.24913706636674 0.5 L 83.72483663273348 0.5 L 83.72483663273348 3.5 L 90.72483663273348 0 L 83.72483663273348 -3.5 L 83.72483663273348 -0.5 L 72.24913706636674 -0.5 Z"/><text text-anchor="middle" pointer-events="none" font-size="8px" fill="#000000" x="54.36241831636674" y="3" font-family="sans-serif">WROTE</text></g></g><g class="layer nodes"><g class="node" transform="translate(94.53220861159805,95.31460372753935)"><circle class="outline" cx="0" cy="0" r="25" fill="#F79767" stroke="#f36924" stroke-width="2px"/><text text-anchor="middle" pointer-events="none" font-family="sans-serif" dy="1.5625" font-size="25" fill="#FFFFFF"/><text text-anchor="middle" pointer-events="none" font-family="sans-serif" dy="1.5625" font-size="25" fill="#FFFFFF"/><text text-anchor="middle" pointer-events="none" font-family="sans-serif" dy="1.5625" font-size="25" fill="#FFFFFF"/><text text-anchor="middle" pointer-events="none" x="0" y="-5" font-size="10px" fill="#FFFFFF" font-family="sans-serif"> Captain</text><text text-anchor="middle" pointer-events="none" x="0" y="5" font-size="10px" fill="#FFFFFF" font-family="sans-serif"> America:</text><text text-anchor="middle" pointer-events="none" x="0" y="15" font-size="10px" fill="#FFFFFF" font-family="sans-serif"> The Fi…</text></g><g class="node" transform="translate(124.55732674210984,206.31152964503116)"><circle class="outline" cx="0" cy="0" r="25" fill="#57C7E3" stroke="#23b3d7" stroke-width="2px"/><text text-anchor="middle" pointer-events="none" font-family="sans-serif" dy="1.5625" font-size="25" fill="#2A2C34"/><text text-anchor="middle" pointer-events="none" font-family="sans-serif" dy="1.5625" font-size="25" fill="#2A2C34"/><text text-anchor="middle" pointer-events="none" x="0" y="0" font-size="10px" fill="#2A2C34" font-family="sans-serif"> Joe</text><text text-anchor="middle" pointer-events="none" x="0" y="10" font-size="10px" fill="#2A2C34" font-family="sans-serif"> Johnston</text></g><g class="node" transform="translate(205.84292483508892,123.10845950015995)"><circle class="outline" cx="0" cy="0" r="25" fill="#57C7E3" stroke="#23b3d7" stroke-width="2px"/><text text-anchor="middle" pointer-events="none" font-family="sans-serif" dy="1.5625" font-size="25" fill="#2A2C34"/><text text-anchor="middle" pointer-events="none" x="0" y="5" font-size="10px" fill="#2A2C34" font-family="sans-serif"> Sebastian</text></g><g class="node" transform="translate(175.99401359242233,13.12111729098336)"><circle class="outline" cx="0" cy="0" r="25" fill="#57C7E3" stroke="#23b3d7" stroke-width="2px"/><text text-anchor="middle" pointer-events="none" font-family="sans-serif" dy="1.5625" font-size="25" fill="#2A2C34"/><text text-anchor="middle" pointer-events="none" x="0" y="5" font-size="10px" fill="#2A2C34" font-family="sans-serif"> Christop…</text></g><g class="node" transform="translate(60.0607465398363,-13.36215692137691)"><circle class="outline" cx="0" cy="0" r="25" fill="#57C7E3" stroke="#23b3d7" stroke-width="2px"/><text text-anchor="middle" pointer-events="none" font-family="sans-serif" dy="1.5625" font-size="25" fill="#2A2C34"/><text text-anchor="middle" pointer-events="none" font-family="sans-serif" dy="1.5625" font-size="25" fill="#2A2C34"/><text text-anchor="middle" pointer-events="none" x="0" y="0" font-size="10px" fill="#2A2C34" font-family="sans-serif"> Perry</text><text text-anchor="middle" pointer-events="none" x="0" y="10" font-size="10px" fill="#2A2C34" font-family="sans-serif"> Carter</text></g><g class="node" transform="translate(-18.474763987778925,81.96514876906757)"><circle class="outline" cx="0" cy="0" r="25" fill="#57C7E3" stroke="#23b3d7" stroke-width="2px"/><text text-anchor="middle" pointer-events="none" font-family="sans-serif" dy="1.5625" font-size="25" fill="#2A2C34"/><text text-anchor="middle" pointer-events="none" font-family="sans-serif" dy="1.5625" font-size="25" fill="#2A2C34"/><text text-anchor="middle" pointer-events="none" x="0" y="0" font-size="10px" fill="#2A2C34" font-family="sans-serif"> Chris</text><text text-anchor="middle" pointer-events="none" x="0" y="10" font-size="10px" fill="#2A2C34" font-family="sans-serif"> Evans</text></g><g class="node" transform="translate(21.123760306187215,184.77653714653425)"><circle class="outline" cx="0" cy="0" r="25" fill="#57C7E3" stroke="#23b3d7" stroke-width="2px"/><text text-anchor="middle" pointer-events="none" font-family="sans-serif" dy="1.5625" font-size="25" fill="#2A2C34"/><text text-anchor="middle" pointer-events="none" font-family="sans-serif" dy="1.5625" font-size="25" fill="#2A2C34"/><text text-anchor="middle" pointer-events="none" x="0" y="0" font-size="10px" fill="#2A2C34" font-family="sans-serif"> Stephen</text><text text-anchor="middle" pointer-events="none" x="0" y="10" font-size="10px" fill="#2A2C34" font-family="sans-serif"> McFeely</text></g></g></svg>